<?xml version="1.0" encoding="UTF-8"?>
<svg width="489px" height="489px" viewBox="0 0 489 489" version="1.1" xmlns="http://www.w3.org/2000/svg" xmlns:xlink="http://www.w3.org/1999/xlink">
    <!-- Generator: Sketch 54.1 (76490) - https://sketchapp.com -->
    <title>Group</title>
    <desc>Created with Sketch.</desc>
    <defs>
        <path d="M396.277,38.193 C491.717,133.633 491.714,288.368 396.276,383.806 C300.839,479.243 146.105,479.246 50.665,383.807 C-44.772,288.369 8.96646134,95.438 104.404461,0" id="path-1"></path>
    </defs>
    <g id="Page-1" stroke="none" stroke-width="1" fill="none" fill-rule="evenodd">
        <g id="Group" transform="translate(-0.000000, 0.000000)">
            <path d="M244.385,488.768 C184.411988,488.768 129.48426,467.165271 86.9594097,431.316444 C33.7822708,386.487642 0,319.381655 0,244.384 C0,109.415 109.416,2.84217094e-14 244.385,2.84217094e-14 C379.354,2.84217094e-14 488.77,109.415 488.77,244.384 C488.77,379.356 379.354,488.768 244.385,488.768 Z" id="Fill-5" fill="#FFFFFF"></path>
            <g id="Group-82" transform="translate(20.914000, 33.384000)">
                <mask id="mask-2" fill="white">
                    <use xlink:href="#path-1"></use>
                </mask>
                <g id="Clip-8"></g>
                <path d="M449.436,117.751 C424.495,57.389 376.074,9.191 315.552,-15.442 C344.93,-3.513 372.447,14.363 396.277,38.193 C419.788,61.704 437.508,88.817 449.436,117.751" id="Fill-10" fill="#CECECE" mask="url(#mask-2)"></path>
                <path d="M402.403,206.143 C437.747,293.166 670.627,497.135 354.621,571.305 C37.793,645.667 122.615,421.156 87.271,334.135 C51.928,247.115 93.82,147.918 180.842,112.574 C267.863,77.231 367.06,119.125 402.403,206.143" id="Fill-15" fill="#FFD93B" mask="url(#mask-2)"></path>
                <path d="M394.947,187.783 C420.3,250.211 311.85,256.076 249.424,281.432 C186.999,306.785 107.312,381.479 81.957,319.053 C56.604,256.627 49.426,99.309 157.608,55.371 C272.105,8.868 369.593,125.357 394.947,187.783" id="Fill-16" fill="#FFD93B" mask="url(#mask-2)"></path>
                <path d="M89.851,341.38 C89.819,341.275 89.787,341.175 89.755,341.071 C89.787,341.174 89.819,341.276 89.851,341.38 M89.754,341.07 C89.076,338.916 88.342,336.833 87.545,334.818 C88.342,336.832 89.076,338.918 89.754,341.07 M87.463,334.612 C87.447,334.572 87.431,334.531 87.415,334.491 C87.432,334.534 87.446,334.57 87.463,334.612 M87.271,334.135 L87.271,334.135 C87.168,333.882 87.066,333.63 86.965,333.377 C87.068,333.632 87.167,333.88 87.271,334.135" id="Fill-17" fill="#515E69" mask="url(#mask-2)"></path>
                <path d="M120.265,78.492 C120.299,78.462 120.337,78.428 120.371,78.398 C120.337,78.428 120.299,78.462 120.265,78.492 M120.381,78.389 C127.187,72.345 134.758,66.928 143.136,62.28 L143.136,62.281 C134.757,66.928 127.187,72.345 120.381,78.389" id="Fill-18" fill="#566673" mask="url(#mask-2)"></path>
                <path d="M116.314,422.593 C110.505,419.936 104.76,417.029 99.131,413.893 C97.517,387.148 96.088,361.862 90.059,342.053 C90.057,342.047 90.058,342.05 90.056,342.045 C90.052,342.032 90.045,342.007 90.041,341.994 L90.038,341.984 C90.034,341.971 90.029,341.954 90.025,341.941 C90.023,341.935 90.021,341.928 90.019,341.923 C90.015,341.909 90.011,341.896 90.007,341.883 C90.005,341.877 90.003,341.871 90.001,341.865 C89.997,341.852 89.993,341.837 89.989,341.823 C89.987,341.818 89.986,341.814 89.984,341.809 C89.98,341.796 89.975,341.778 89.971,341.765 C89.969,341.759 89.968,341.756 89.966,341.75 C89.961,341.733 89.955,341.714 89.95,341.697 C89.946,341.685 89.939,341.662 89.935,341.651 L89.934,341.644 C89.93,341.633 89.924,341.615 89.921,341.603 C89.919,341.599 89.918,341.593 89.916,341.588 C89.913,341.577 89.907,341.56 89.904,341.548 C89.902,341.544 89.901,341.539 89.9,341.535 C89.894,341.517 89.892,341.511 89.887,341.494 C89.886,341.49 89.884,341.486 89.883,341.481 C89.878,341.464 89.874,341.453 89.869,341.436 L89.869,341.435 C89.863,341.418 89.858,341.402 89.853,341.385 L89.851,341.38 C89.819,341.276 89.787,341.174 89.755,341.071 L89.754,341.07 C89.076,338.918 88.342,336.832 87.545,334.818 L87.543,334.813 C87.539,334.802 87.531,334.782 87.526,334.772 L87.522,334.761 C87.518,334.75 87.511,334.732 87.507,334.721 L87.503,334.711 C87.498,334.7 87.491,334.682 87.487,334.671 C87.485,334.667 87.484,334.665 87.483,334.661 C87.476,334.645 87.473,334.637 87.467,334.621 C87.465,334.617 87.465,334.616 87.463,334.612 C87.446,334.57 87.432,334.534 87.415,334.491 C87.413,334.487 87.408,334.476 87.407,334.472 C87.403,334.461 87.4,334.455 87.396,334.444 C87.391,334.432 87.39,334.43 87.386,334.418 C87.381,334.408 87.38,334.404 87.376,334.394 C87.372,334.386 87.368,334.374 87.365,334.366 C87.36,334.355 87.359,334.352 87.355,334.342 C87.351,334.333 87.346,334.32 87.343,334.312 C87.341,334.307 87.336,334.296 87.334,334.291 C87.329,334.279 87.327,334.274 87.322,334.262 C87.318,334.251 87.317,334.247 87.312,334.237 C87.309,334.228 87.305,334.218 87.301,334.21 C87.297,334.199 87.296,334.196 87.292,334.186 C87.285,334.169 87.277,334.151 87.271,334.135 C87.167,333.88 87.068,333.632 86.965,333.377 C86.963,333.371 86.96,333.365 86.958,333.359 C86.949,333.338 86.936,333.304 86.927,333.282 C85.043,328.57 83.395,323.82 81.956,319.05 C81.957,319.053 81.957,319.053 81.957,319.053 C87.386,332.419 95.3,339.498 105.007,342.122 C113.039,363.283 114.461,392.071 116.314,422.593" id="Fill-19" fill="#FFE162" mask="url(#mask-2)"></path>
                <path d="M394.947,187.783 C394.929,187.737 394.908,187.687 394.89,187.641 C394.908,187.687 394.928,187.737 394.947,187.783" id="Fill-21" fill="#1E2B36" mask="url(#mask-2)"></path>
                <path d="M439.082,304.642 C425.25,283.567 411.12,263.685 399.65,245.976 C399.093,239.808 397.285,234.216 394.16,229.55 C393.769,227.624 393.241,225.768 392.573,223.998 C398.307,216.018 400.371,206.494 397.303,194.794 C399.124,198.489 400.829,202.269 402.403,206.143 C410.482,226.035 428.877,252.03 448.683,281.195 C445.905,289.138 442.705,296.964 439.082,304.642" id="Fill-22" fill="#CCAE2F" mask="url(#mask-2)"></path>
                <path d="M392.573,223.998 C390.945,219.676 388.485,215.859 385.159,212.723 C383.219,210.893 381.064,209.372 378.73,208.15 C377.268,204.624 375.7,201.175 374.032,197.8 C373.444,195.57 372.691,193.271 371.721,190.879 C352.881,144.491 294.213,68.251 218.328,51.221 C221.541,50.993 224.735,50.882 227.905,50.882 C242.1,50.882 255.845,53.113 269.018,57.075 C331.335,83.642 378.343,147.019 394.89,187.641 C394.908,187.687 394.929,187.737 394.947,187.783 C394.956,187.806 394.966,187.829 394.975,187.852 C395.932,190.217 396.675,192.496 397.259,194.704 C397.274,194.734 397.289,194.764 397.303,194.794 C400.371,206.494 398.307,216.018 392.573,223.998" id="Fill-23" fill="#CCAE2F" mask="url(#mask-2)"></path>
                <path d="M269.018,57.075 C255.845,53.113 242.1,50.882 227.905,50.882 C224.735,50.882 221.541,50.993 218.328,51.221 C208.393,48.991 198.157,47.775 187.683,47.775 C187.355,47.775 187.027,47.776 186.699,47.779 C186.741,47.472 186.782,47.165 186.819,46.862 C194.979,45.394 203.01,44.704 210.913,44.704 C231.337,44.704 250.828,49.32 269.018,57.075" id="Fill-24" fill="#CCB44E" mask="url(#mask-2)"></path>
                <path d="M167.022,265.067 C166.849,265.067 166.677,265.064 166.506,265.059 C166.25,265.052 165.997,265.042 165.742,265.026 C165.515,265.012 165.286,264.992 165.057,264.972 C164.791,264.947 164.525,264.918 164.258,264.887 C164.042,264.861 163.826,264.829 163.61,264.795 C163.331,264.754 163.051,264.707 162.772,264.657 C162.571,264.619 162.368,264.575 162.166,264.531 C161.874,264.472 161.58,264.408 161.284,264.334 C161.106,264.291 160.924,264.24 160.746,264.192 C160.43,264.108 160.113,264.021 159.798,263.925 C159.655,263.882 159.511,263.832 159.369,263.786 C159.017,263.671 158.665,263.558 158.314,263.429 L158.117,263.352 C147.54,259.404 137.305,248.913 131.482,234.574 C122.496,212.452 127.407,189.564 142.452,183.455 C144.964,182.434 147.599,181.948 150.288,181.948 C154.404,181.948 158.646,183.087 162.766,185.194 L162.881,185.252 C164.266,185.967 165.638,186.791 166.988,187.721 L167.158,187.839 C167.811,188.294 168.46,188.77 169.102,189.273 L169.133,189.297 C169.794,189.818 170.449,190.363 171.097,190.934 L171.244,191.067 C171.817,191.578 172.382,192.107 172.941,192.655 C173.033,192.744 173.122,192.831 173.21,192.918 C174.089,193.792 174.947,194.712 175.783,195.677 C175.387,195.339 174.988,195.012 174.586,194.696 L174.557,194.675 C173.979,194.222 173.394,193.793 172.807,193.383 L172.653,193.276 C171.438,192.439 170.203,191.695 168.954,191.052 L168.851,190.999 C165.139,189.102 161.318,188.076 157.611,188.076 C155.189,188.076 152.816,188.514 150.553,189.433 C137.004,194.935 132.581,215.55 140.674,235.475 C145.92,248.39 155.137,257.84 164.663,261.395 L164.841,261.464 C165.158,261.58 165.474,261.683 165.789,261.785 C165.919,261.826 166.049,261.873 166.178,261.913 C166.462,261.998 166.747,262.076 167.031,262.151 C167.192,262.194 167.356,262.241 167.517,262.28 C167.783,262.346 168.046,262.402 168.312,262.457 C168.493,262.497 168.676,262.536 168.856,262.57 C169.108,262.617 169.359,262.658 169.611,262.694 C169.806,262.726 170,262.752 170.194,262.778 C170.435,262.808 170.675,262.832 170.916,262.854 C171.121,262.872 171.327,262.89 171.53,262.901 C171.76,262.915 171.991,262.927 172.22,262.932 C172.39,262.937 172.558,262.939 172.727,262.939 C172.772,262.939 172.817,262.939 172.863,262.938 C173.081,262.936 173.3,262.935 173.52,262.928 C173.743,262.919 173.966,262.904 174.188,262.889 C174.396,262.873 174.606,262.86 174.813,262.837 C175.047,262.814 175.279,262.781 175.512,262.747 C175.707,262.72 175.901,262.693 176.096,262.662 C176.345,262.618 176.59,262.564 176.836,262.509 C177.013,262.471 177.191,262.438 177.367,262.395 C177.389,262.39 177.411,262.384 177.433,262.378 C176.651,262.826 175.837,263.223 174.989,263.567 C174.534,263.75 174.076,263.915 173.615,264.065 C173.457,264.116 173.297,264.157 173.138,264.203 C172.832,264.294 172.529,264.386 172.221,264.462 C172.026,264.511 171.829,264.549 171.634,264.591 C171.359,264.649 171.086,264.71 170.81,264.758 C170.595,264.796 170.378,264.823 170.161,264.853 C169.903,264.889 169.645,264.927 169.385,264.953 C169.155,264.979 168.922,264.993 168.691,265.009 C168.445,265.028 168.198,265.045 167.949,265.055 C167.708,265.063 167.463,265.064 167.221,265.065 C167.154,265.066 167.088,265.067 167.022,265.067" id="Fill-25" fill="#E5C335" mask="url(#mask-2)"></path>
                <path d="M177.433,262.378 C190.54,254.88 194.438,233.323 185.959,212.447 C185.603,211.571 185.225,210.714 184.837,209.867 C184.732,209.639 184.625,209.41 184.516,209.182 C184.189,208.487 183.849,207.802 183.5,207.127 C183.421,206.975 183.346,206.819 183.266,206.668 C182.841,205.864 182.401,205.076 181.948,204.302 C181.848,204.131 181.743,203.961 181.639,203.79 C181.26,203.157 180.873,202.535 180.476,201.925 C180.365,201.753 180.254,201.581 180.142,201.41 C179.648,200.666 179.143,199.938 178.624,199.229 L178.507,199.077 C178.023,198.417 177.523,197.778 177.018,197.152 C176.902,197.008 176.785,196.864 176.667,196.722 C176.375,196.368 176.081,196.019 175.783,195.677 C175.974,195.839 176.164,196.003 176.353,196.17 L176.487,196.29 C177.003,196.749 177.511,197.227 178.017,197.721 L178.258,197.958 C179.331,199.025 180.37,200.168 181.372,201.383 C181.477,201.511 181.583,201.64 181.688,201.77 C182.143,202.335 182.591,202.91 183.03,203.504 L183.134,203.643 C183.601,204.279 184.056,204.936 184.5,205.605 C184.603,205.76 184.703,205.915 184.802,206.069 C185.159,206.618 185.507,207.178 185.851,207.75 C185.942,207.904 186.037,208.056 186.129,208.212 C186.536,208.908 186.932,209.618 187.314,210.341 C187.386,210.476 187.456,210.618 187.525,210.755 C187.84,211.362 188.146,211.98 188.442,212.607 C188.538,212.811 188.634,213.016 188.731,213.223 C189.08,213.987 189.419,214.756 189.739,215.546 C197.832,235.471 193.41,256.086 179.86,261.587 C179.45,261.754 179.038,261.903 178.622,262.038 C178.48,262.084 178.336,262.12 178.193,262.162 C177.94,262.237 177.688,262.314 177.433,262.378" id="Fill-26" fill="#E5C335" mask="url(#mask-2)"></path>
                <path d="M172.727,262.939 C172.558,262.939 172.39,262.937 172.22,262.932 C171.991,262.927 171.76,262.915 171.53,262.901 C171.327,262.89 171.121,262.872 170.916,262.854 C170.675,262.832 170.435,262.808 170.194,262.778 C170,262.752 169.806,262.726 169.611,262.694 C169.359,262.658 169.108,262.617 168.856,262.57 C168.676,262.536 168.493,262.497 168.312,262.457 C168.046,262.402 167.783,262.346 167.517,262.28 C167.356,262.241 167.192,262.194 167.031,262.151 C166.747,262.076 166.462,261.998 166.178,261.913 C166.049,261.873 165.919,261.826 165.789,261.785 C165.474,261.683 165.158,261.58 164.841,261.464 L164.663,261.395 C155.137,257.84 145.92,248.39 140.674,235.475 C132.581,215.55 137.004,194.935 150.553,189.433 C152.816,188.514 155.189,188.076 157.611,188.076 C161.318,188.076 165.139,189.102 168.851,190.999 L168.954,191.052 C170.203,191.695 171.438,192.439 172.653,193.276 L172.807,193.383 C173.394,193.793 173.979,194.222 174.557,194.675 L174.586,194.696 C174.988,195.012 175.387,195.339 175.783,195.677 C176.081,196.019 176.375,196.368 176.667,196.722 C176.785,196.864 176.902,197.008 177.018,197.152 C177.523,197.778 178.023,198.417 178.507,199.077 L178.624,199.229 C179.143,199.938 179.648,200.666 180.142,201.41 C180.254,201.581 180.365,201.753 180.476,201.925 C180.873,202.535 181.26,203.157 181.639,203.79 C181.743,203.961 181.848,204.131 181.948,204.302 C182.401,205.076 182.841,205.864 183.266,206.668 C183.346,206.819 183.421,206.975 183.5,207.127 C183.849,207.802 184.189,208.487 184.516,209.182 C184.625,209.41 184.732,209.639 184.837,209.867 C185.225,210.714 185.603,211.571 185.959,212.447 C194.438,233.323 190.54,254.88 177.433,262.378 C177.411,262.384 177.389,262.39 177.367,262.395 C177.191,262.438 177.013,262.471 176.836,262.509 C176.59,262.564 176.345,262.618 176.096,262.662 C175.901,262.693 175.707,262.72 175.512,262.747 C175.279,262.781 175.047,262.814 174.813,262.837 C174.606,262.86 174.396,262.873 174.188,262.889 C173.966,262.904 173.743,262.919 173.52,262.928 C173.3,262.935 173.081,262.936 172.863,262.938 C172.817,262.939 172.772,262.939 172.727,262.939" id="Fill-27" fill="#CEAF30" mask="url(#mask-2)"></path>
                <path d="M183.93,418.142 C172.246,418.141 161.172,411.169 156.507,399.681 L156.327,399.247 C155.61,397.48 154.902,395.263 154.24,392.719 C159.742,401.22 169.198,406.218 179.089,406.218 C182.79,406.218 186.551,405.518 190.189,404.041 C190.189,404.041 260.65,375.441 284.135,365.902 C307.295,356.497 376.775,328.285 376.775,328.285 C390.136,322.859 397.377,308.778 394.659,295.141 C395.959,297.419 396.998,299.497 397.717,301.268 L397.881,301.676 C404.024,316.803 396.741,334.05 381.613,340.193 C381.613,340.193 312.135,368.408 288.975,377.815 C265.49,387.353 195.036,415.964 195.036,415.964 C191.395,417.442 187.632,418.142 183.93,418.142 M149.363,380.781 C128.047,373.773 112.723,360.253 109.875,344.787 C116.938,355.63 130.333,364.604 147.073,369.576 C147.705,373.662 148.498,377.494 149.363,380.781 M390.272,284.032 C388.65,281.109 386.568,277.818 384.166,274.399 C391.192,262.227 394.92,249.725 395.001,238.673 C396.491,241.059 398.049,243.502 399.65,245.976 C400.684,257.422 397.412,270.856 390.272,284.032" id="Fill-28" fill="#E5C335" mask="url(#mask-2)"></path>
                <path d="M399.65,245.976 C398.049,243.502 396.491,241.059 395.001,238.673 C395.024,235.499 394.746,232.443 394.16,229.55 C397.285,234.216 399.093,239.808 399.65,245.976" id="Fill-29" fill="#B79C2A" mask="url(#mask-2)"></path>
                <path d="M154.24,392.719 C153.241,391.175 152.371,389.514 151.653,387.747 L151.453,387.282 C150.74,385.528 150.03,383.317 149.363,380.781 C150.228,381.066 151.104,381.34 151.989,381.603 C152.616,385.666 153.391,389.46 154.24,392.719 M109.875,344.787 C109.47,344.164 109.085,343.535 108.721,342.9 C109.016,342.945 109.308,342.986 109.606,343.024 C109.678,343.615 109.767,344.201 109.875,344.787" id="Fill-30" fill="#E5C335" mask="url(#mask-2)"></path>
                <path d="M109.606,343.024 C109.308,342.986 109.016,342.945 108.721,342.9 C105.717,337.651 104.18,332.007 104.431,326.198 C105.394,303.931 133.042,287.969 165.744,284.482 L165.749,284.478 C166.169,284.496 166.589,284.504 167.012,284.504 C175.057,284.504 183.527,281.414 191.783,276.693 C202.799,270.395 211.237,262.205 215.263,253.661 C217.642,244.239 222.846,236.986 230.513,233.871 C233.175,232.789 235.971,232.273 238.834,232.273 C244.173,232.273 249.744,234.068 255.103,237.34 C259.94,239.185 265.695,240.174 271.937,240.174 C277.133,240.174 282.666,239.488 288.286,238.04 C297.353,235.703 305.25,231.759 311.244,226.963 C327.475,212.333 346.165,204.318 361.867,204.318 C368.065,204.318 373.798,205.567 378.73,208.15 C378.88,208.513 379.029,208.876 379.178,209.241 C380.632,212.821 382.422,216.603 384.493,220.562 C379.359,217.635 373.293,216.223 366.704,216.223 C351,216.223 332.312,224.237 316.079,238.868 C310.087,243.665 302.189,247.608 293.123,249.944 C287.503,251.393 281.969,252.08 276.772,252.08 C270.531,252.08 264.776,251.09 259.939,249.246 C254.58,245.974 249.01,244.179 243.672,244.179 C240.808,244.179 238.012,244.695 235.35,245.777 C227.681,248.892 222.478,256.145 220.1,265.567 C216.074,274.111 207.792,282.538 196.774,288.837 C188.492,293.572 180.138,296.882 172.084,296.883 C171.687,296.883 171.292,296.875 170.897,296.858 L170.892,296.863 C136.888,298.73 110.386,316.074 109.424,338.342 C109.356,339.916 109.419,341.479 109.606,343.024" id="Fill-31" fill="#E5C335" mask="url(#mask-2)"></path>
                <path d="M394.16,229.55 C393.274,228.228 392.282,226.981 391.183,225.815 C391.668,225.218 392.132,224.612 392.573,223.998 C393.241,225.768 393.769,227.624 394.16,229.55" id="Fill-32" fill="#B79C2A" mask="url(#mask-2)"></path>
                <path d="M391.183,225.815 C390.8,225.409 390.405,225.013 389.995,224.627 C388.315,223.043 386.472,221.69 384.493,220.562 C382.422,216.603 380.632,212.821 379.178,209.241 C379.029,208.876 378.88,208.513 378.73,208.15 C381.064,209.372 383.219,210.893 385.159,212.723 C388.485,215.859 390.945,219.676 392.573,223.998 C392.132,224.612 391.668,225.218 391.183,225.815" id="Fill-33" fill="#B79C2A" mask="url(#mask-2)"></path>
                <path d="M394.659,295.141 C393.108,292.422 391.187,289.418 388.999,286.307 C389.436,285.549 389.86,284.792 390.272,284.032 C391.362,285.998 392.245,287.797 392.879,289.358 L393.046,289.768 C393.764,291.537 394.299,293.335 394.659,295.141" id="Fill-34" fill="#E5C335" mask="url(#mask-2)"></path>
                <path d="M179.089,406.218 C169.198,406.218 159.742,401.22 154.24,392.719 C153.391,389.46 152.616,385.666 151.989,381.603 C151.104,381.34 150.228,381.066 149.363,380.781 C148.498,377.494 147.705,373.662 147.073,369.576 C130.333,364.604 116.938,355.63 109.875,344.787 C109.767,344.201 109.678,343.615 109.606,343.024 C111.258,343.233 112.954,343.334 114.691,343.334 C150.81,343.334 204.575,299.647 249.424,281.432 C294.445,263.145 363.404,254.997 388.847,228.457 C390.752,231.76 392.811,235.167 395.001,238.673 C394.92,249.725 391.192,262.227 384.166,274.399 C386.568,277.818 388.65,281.109 390.272,284.032 C389.86,284.792 389.436,285.549 388.999,286.307 C391.187,289.418 393.108,292.422 394.659,295.141 C397.377,308.778 390.136,322.859 376.775,328.285 C376.775,328.285 307.295,356.497 284.135,365.902 C260.65,375.441 190.189,404.041 190.189,404.041 C186.551,405.518 182.79,406.218 179.089,406.218" id="Fill-35" fill="#CEAF30" mask="url(#mask-2)"></path>
                <path d="M114.691,343.334 C112.954,343.334 111.258,343.233 109.606,343.024 C109.419,341.479 109.356,339.916 109.424,338.342 C110.386,316.074 136.888,298.73 170.892,296.863 L170.897,296.858 C171.292,296.875 171.687,296.883 172.084,296.883 C180.138,296.882 188.492,293.572 196.774,288.837 C207.792,282.538 216.074,274.111 220.1,265.567 C222.478,256.145 227.681,248.892 235.35,245.777 C238.012,244.695 240.808,244.179 243.672,244.179 C249.01,244.179 254.58,245.974 259.939,249.246 C264.776,251.09 270.531,252.08 276.772,252.08 C281.969,252.08 287.503,251.393 293.123,249.944 C302.189,247.608 310.087,243.665 316.079,238.868 C332.312,224.237 351,216.223 366.704,216.223 C373.293,216.223 379.359,217.635 384.493,220.562 C385.832,223.122 387.285,225.75 388.847,228.457 C363.404,254.997 294.445,263.145 249.424,281.432 C204.575,299.647 150.81,343.334 114.691,343.334" id="Fill-36" fill="#CEAF30" mask="url(#mask-2)"></path>
                <path d="M395.001,238.673 C392.811,235.167 390.752,231.76 388.847,228.457 C389.671,227.597 390.452,226.715 391.183,225.815 C392.282,226.981 393.274,228.228 394.16,229.55 C394.746,232.443 395.024,235.499 395.001,238.673" id="Fill-37" fill="#A48C26" mask="url(#mask-2)"></path>
                <path d="M388.847,228.457 C387.285,225.75 385.832,223.122 384.493,220.562 C386.472,221.69 388.315,223.043 389.995,224.627 C390.405,225.013 390.8,225.409 391.183,225.815 C390.452,226.715 389.671,227.597 388.847,228.457" id="Fill-38" fill="#A48C26" mask="url(#mask-2)"></path>
                <path d="M280.931,271.395 C291.369,297.099 286.315,323.426 269.636,330.199 C252.96,336.974 230.977,321.625 220.537,295.923 C210.098,270.219 215.154,243.891 231.832,237.119 C248.511,230.344 270.491,245.69 280.931,271.395" id="Fill-39" fill="#FFA727" mask="url(#mask-2)"></path>
                <path d="M246.068,335.936 C245.01,360.43 212.801,378.932 174.126,377.258 C135.452,375.586 104.958,354.372 106.017,329.878 C107.076,305.385 139.288,286.885 177.963,288.559 C216.637,290.229 247.131,311.442 246.068,335.936" id="Fill-40" fill="#FFA727" mask="url(#mask-2)"></path>
                <path d="M290.312,317.968 C308.15,334.786 344.14,325.588 370.693,297.419 C397.25,269.254 404.316,232.788 386.478,215.971 C368.641,199.15 332.65,208.351 306.094,236.516 C279.539,264.684 272.473,301.149 290.312,317.968" id="Fill-41" fill="#FFA727" mask="url(#mask-2)"></path>
                <path d="M217.513,254.773 C213.912,264 205.305,273.55 193.37,280.373 C184.678,285.341 175.652,288.095 167.603,288.592 L133.242,315.464 L187.961,322.336 C187.961,322.336 214.527,324.893 218.466,323.872 C222.402,322.854 254.952,300.859 254.952,300.859 L256.638,275.008 L217.513,254.773" id="Fill-42" fill="#FFA727" mask="url(#mask-2)"></path>
                <path d="M254.451,239.77 C263.465,243.873 276.295,244.718 289.605,241.287 C299.3,238.788 307.689,234.466 313.807,229.211 L357.173,224.513 L322.743,267.594 C322.743,267.594 305.482,287.95 301.948,289.966 C298.416,291.982 259.748,298.911 259.748,298.911 L240.515,281.555 L254.451,239.77" id="Fill-43" fill="#FFA727" mask="url(#mask-2)"></path>
                <path d="M394.365,293.019 C400.511,308.148 393.227,325.395 378.098,331.538 C378.098,331.538 308.62,359.758 285.462,369.164 C261.977,378.701 191.524,407.314 191.524,407.314 C176.396,413.461 159.15,406.176 153.004,391.047 L152.837,390.637 C146.692,375.507 141.668,327.955 156.797,321.811 L343.37,246.035 C358.501,239.889 388.055,277.479 394.198,292.609 L394.365,293.019" id="Fill-44" fill="#FFA727" mask="url(#mask-2)"></path>
                <path d="M184.735,212.536 C192.827,232.461 188.403,253.076 174.854,258.577 C161.305,264.081 143.759,252.39 135.668,232.464 C127.576,212.539 131.999,191.925 145.548,186.423 C159.098,180.92 176.643,192.611 184.735,212.536" id="Fill-45" fill="#333333" mask="url(#mask-2)"></path>
                <path d="M156.753,208.079 C159.607,215.102 158.045,222.368 153.27,224.309 C148.494,226.251 142.307,222.128 139.455,215.103 C136.602,208.079 138.162,200.812 142.938,198.872 C147.714,196.93 153.9,201.052 156.753,208.079" id="Fill-46" fill="#FFFFFF" mask="url(#mask-2)"></path>
                <path d="M158.049,185.772 C165.742,190.342 172.791,198.649 177.125,209.322 C185.218,229.247 180.794,249.86 167.244,255.364 C163.306,256.964 159.028,257.103 154.744,256.015 C161.41,259.977 168.563,261.132 174.854,258.577 C188.403,253.076 192.827,232.461 184.735,212.536 C178.995,198.404 168.5,188.423 158.049,185.772" id="Fill-47" fill="#000000" mask="url(#mask-2)"></path>
                <path d="M205.348,248.7 C208.92,257.495 200.494,269.225 186.526,274.897 C172.559,280.571 158.341,278.039 154.767,269.242 C151.195,260.447 159.622,248.717 173.589,243.045 C187.557,237.373 201.775,239.903 205.348,248.7" id="Fill-48" fill="#FFD93B" mask="url(#mask-2)"></path>
                <path d="M279.592,219.349 C279.417,219.349 279.242,219.346 279.069,219.342 C278.815,219.335 278.559,219.322 278.305,219.307 C278.078,219.292 277.85,219.275 277.62,219.254 C277.354,219.23 277.088,219.202 276.821,219.168 C276.605,219.143 276.389,219.111 276.172,219.077 C275.895,219.037 275.616,218.991 275.336,218.939 C275.134,218.902 274.934,218.857 274.731,218.816 C274.437,218.753 274.145,218.692 273.848,218.618 C273.669,218.574 273.488,218.523 273.309,218.475 C272.994,218.39 272.677,218.303 272.36,218.211 C272.219,218.165 272.073,218.114 271.93,218.067 C271.578,217.953 271.229,217.836 270.877,217.712 L270.678,217.633 C260.103,213.687 249.867,203.195 244.044,188.856 C235.059,166.732 239.971,143.848 255.014,137.736 C257.526,136.716 260.161,136.23 262.851,136.23 C266.967,136.23 271.209,137.368 275.329,139.475 L275.443,139.534 C276.831,140.247 278.202,141.075 279.549,142.004 L279.721,142.124 C280.375,142.577 281.022,143.053 281.665,143.556 L281.696,143.581 C282.359,144.1 283.012,144.646 283.658,145.216 L283.807,145.35 C284.379,145.861 284.944,146.391 285.506,146.939 L285.775,147.2 C286.651,148.074 287.509,148.994 288.345,149.957 C287.949,149.621 287.551,149.295 287.148,148.979 L287.118,148.958 C286.542,148.505 285.958,148.075 285.371,147.664 L285.216,147.558 C284.001,146.722 282.765,145.979 281.518,145.335 L281.414,145.282 C277.703,143.385 273.881,142.359 270.174,142.359 C267.752,142.359 265.38,142.796 263.118,143.715 C249.567,149.218 245.144,169.833 253.235,189.757 C258.481,202.673 267.699,212.121 277.227,215.678 L277.404,215.746 C277.721,215.862 278.036,215.964 278.352,216.069 C278.482,216.107 278.611,216.155 278.742,216.194 C279.027,216.282 279.309,216.356 279.595,216.434 C279.756,216.479 279.918,216.523 280.079,216.563 C280.345,216.629 280.609,216.686 280.874,216.742 C281.056,216.778 281.239,216.818 281.42,216.853 C281.67,216.9 281.924,216.938 282.175,216.977 C282.369,217.007 282.563,217.034 282.757,217.059 C282.998,217.09 283.237,217.115 283.479,217.137 C283.683,217.155 283.889,217.171 284.093,217.183 C284.323,217.197 284.554,217.209 284.781,217.216 C284.959,217.22 285.135,217.221 285.312,217.221 C285.35,217.221 285.388,217.221 285.426,217.221 C285.645,217.22 285.864,217.219 286.082,217.211 C286.306,217.202 286.529,217.187 286.75,217.171 C286.961,217.156 287.168,217.143 287.377,217.121 C287.608,217.097 287.842,217.063 288.073,217.03 C288.27,217.003 288.464,216.977 288.661,216.944 C288.909,216.899 289.153,216.847 289.399,216.792 C289.576,216.755 289.753,216.719 289.931,216.678 C289.951,216.673 289.971,216.668 289.991,216.663 C289.21,217.109 288.396,217.506 287.551,217.85 C287.098,218.032 286.639,218.198 286.178,218.348 C286.021,218.399 285.858,218.439 285.701,218.487 C285.395,218.577 285.092,218.669 284.784,218.745 C284.59,218.793 284.393,218.83 284.196,218.873 C283.922,218.931 283.647,218.992 283.372,219.04 C283.159,219.075 282.941,219.104 282.725,219.138 C282.466,219.172 282.209,219.211 281.95,219.235 C281.72,219.263 281.485,219.275 281.255,219.292 C281.008,219.31 280.762,219.328 280.51,219.336 C280.269,219.345 280.026,219.346 279.784,219.348 C279.72,219.348 279.656,219.349 279.592,219.349" id="Fill-49" fill="#E5C335" mask="url(#mask-2)"></path>
                <path d="M289.991,216.663 C303.103,209.168 307.002,187.61 298.521,166.731 C298.164,165.853 297.787,164.996 297.4,164.151 C297.294,163.92 297.189,163.693 297.081,163.466 C296.752,162.77 296.413,162.085 296.063,161.411 C295.983,161.258 295.907,161.102 295.83,160.951 C295.404,160.147 294.964,159.358 294.514,158.585 C294.409,158.412 294.306,158.243 294.201,158.073 C293.823,157.439 293.436,156.819 293.038,156.209 C292.927,156.036 292.817,155.864 292.704,155.694 C292.213,154.949 291.706,154.22 291.189,153.511 L291.071,153.359 C290.586,152.7 290.086,152.06 289.581,151.433 C289.465,151.29 289.348,151.148 289.23,151.004 C288.938,150.649 288.643,150.3 288.345,149.957 C288.536,150.119 288.727,150.284 288.917,150.451 L289.05,150.573 C289.565,151.031 290.074,151.509 290.579,152.004 L290.821,152.239 C291.894,153.308 292.934,154.451 293.936,155.666 C294.041,155.794 294.145,155.924 294.252,156.054 C294.706,156.617 295.155,157.191 295.592,157.786 L295.697,157.924 C296.166,158.562 296.619,159.219 297.064,159.889 C297.165,160.042 297.265,160.197 297.364,160.352 C297.722,160.903 298.071,161.46 298.412,162.032 C298.506,162.186 298.6,162.339 298.691,162.495 C299.1,163.19 299.494,163.898 299.879,164.624 C299.95,164.759 300.018,164.901 300.089,165.038 C300.403,165.645 300.708,166.263 301.005,166.89 C301.101,167.094 301.197,167.298 301.292,167.506 C301.642,168.268 301.981,169.039 302.303,169.827 C310.395,189.754 305.972,210.369 292.421,215.871 C292.014,216.037 291.602,216.186 291.185,216.319 C291.044,216.366 290.897,216.403 290.756,216.444 C290.5,216.519 290.248,216.598 289.991,216.663" id="Fill-50" fill="#E5C335" mask="url(#mask-2)"></path>
                <path d="M285.312,217.221 C285.135,217.221 284.959,217.22 284.781,217.216 C284.554,217.209 284.323,217.197 284.093,217.183 C283.889,217.171 283.683,217.155 283.479,217.137 C283.237,217.115 282.998,217.09 282.757,217.059 C282.563,217.034 282.369,217.007 282.175,216.977 C281.924,216.938 281.67,216.9 281.42,216.853 C281.239,216.818 281.056,216.778 280.874,216.742 C280.609,216.686 280.345,216.629 280.079,216.563 C279.918,216.523 279.756,216.479 279.595,216.434 C279.309,216.356 279.027,216.282 278.742,216.194 C278.611,216.155 278.482,216.107 278.352,216.069 C278.036,215.964 277.721,215.862 277.404,215.746 L277.227,215.678 C267.699,212.121 258.481,202.673 253.235,189.757 C245.144,169.833 249.567,149.218 263.118,143.715 C265.38,142.796 267.752,142.359 270.174,142.359 C273.881,142.359 277.703,143.385 281.414,145.282 L281.518,145.335 C282.765,145.979 284.001,146.722 285.216,147.558 L285.371,147.664 C285.958,148.075 286.542,148.505 287.118,148.958 L287.148,148.979 C287.551,149.295 287.949,149.621 288.345,149.957 C288.643,150.3 288.938,150.649 289.23,151.004 C289.348,151.148 289.465,151.29 289.581,151.433 C290.086,152.06 290.586,152.7 291.071,153.359 L291.189,153.511 C291.706,154.22 292.213,154.949 292.704,155.694 C292.817,155.864 292.927,156.036 293.038,156.209 C293.436,156.819 293.823,157.439 294.201,158.073 C294.306,158.243 294.409,158.412 294.514,158.585 C294.964,159.358 295.404,160.147 295.83,160.951 C295.907,161.102 295.983,161.258 296.063,161.411 C296.413,162.085 296.752,162.77 297.081,163.466 C297.189,163.693 297.294,163.92 297.4,164.151 C297.787,164.996 298.164,165.853 298.521,166.731 C307.002,187.61 303.103,209.168 289.991,216.663 C289.971,216.668 289.951,216.673 289.931,216.678 C289.753,216.719 289.576,216.755 289.399,216.792 C289.153,216.847 288.909,216.899 288.661,216.944 C288.464,216.977 288.27,217.003 288.073,217.03 C287.842,217.063 287.608,217.097 287.377,217.121 C287.168,217.143 286.961,217.156 286.75,217.171 C286.529,217.187 286.306,217.202 286.082,217.211 C285.864,217.219 285.645,217.22 285.426,217.221 C285.388,217.221 285.35,217.221 285.312,217.221" id="Fill-51" fill="#CEAF30" mask="url(#mask-2)"></path>
                <path d="M297.296,166.819 C305.39,186.743 300.966,207.356 287.419,212.86 C273.867,218.364 256.322,206.671 248.23,186.747 C240.137,166.822 244.562,146.208 258.111,140.706 C271.659,135.203 289.203,146.895 297.296,166.819" id="Fill-52" fill="#333333" mask="url(#mask-2)"></path>
                <path d="M270.611,140.054 C278.304,144.625 285.352,152.932 289.688,163.605 C297.778,183.529 293.357,204.143 279.807,209.646 C275.869,211.247 271.592,211.384 267.307,210.298 C273.975,214.26 281.128,215.415 287.419,212.86 C300.966,207.356 305.39,186.743 297.296,166.819 C291.557,152.688 281.063,142.705 270.611,140.054" id="Fill-53" fill="#000000" mask="url(#mask-2)"></path>
                <path d="M269.753,162.079 C272.607,169.102 271.045,176.368 266.27,178.309 C261.494,180.251 255.307,176.128 252.455,169.103 C249.602,162.079 251.162,154.812 255.938,152.872 C260.714,150.93 266.9,155.052 269.753,162.079" id="Fill-54" fill="#FFFFFF" mask="url(#mask-2)"></path>
                <path d="M317.91,202.983 C321.481,211.779 313.058,223.507 299.091,229.18 C285.123,234.854 270.903,232.321 267.329,223.527 C263.757,214.728 272.187,203.001 286.152,197.327 C300.12,191.654 314.338,194.185 317.91,202.983" id="Fill-55" fill="#FFD93B" mask="url(#mask-2)"></path>
                <path d="M222.646,275.635 C225.776,273.531 228.316,270.579 229.86,266.924 C231.404,263.27 231.749,259.391 231.073,255.679 C227.941,257.784 225.401,260.734 223.857,264.389 C222.314,268.044 221.969,271.923 222.646,275.635" id="Fill-56" fill="#7C5221" mask="url(#mask-2)"></path>
                <path d="M266.555,259.419 C262.684,259.873 258.585,259.347 254.659,257.688 C250.734,256.032 247.498,253.461 245.125,250.37 C248.994,249.915 253.095,250.441 257.021,252.101 C260.945,253.759 264.182,256.328 266.555,259.419" id="Fill-57" fill="#7C5221" mask="url(#mask-2)"></path>
                <path d="M149.698,372.98 C149.693,372.905 149.325,365.713 146.121,357.207 C144.518,352.955 142.203,348.371 138.846,344.198 C135.492,340.026 131.086,336.266 125.348,333.709 C124.759,333.447 124.068,333.711 123.806,334.301 C123.543,334.89 123.808,335.581 124.397,335.843 C129.76,338.235 133.863,341.732 137.026,345.662 C141.768,351.554 144.371,358.432 145.769,363.836 C146.469,366.537 146.869,368.867 147.093,370.515 C147.206,371.338 147.274,371.992 147.314,372.436 C147.334,372.658 147.347,372.827 147.355,372.939 L147.363,373.064 L147.365,373.1 C147.398,373.744 147.947,374.24 148.592,374.207 C149.236,374.174 149.731,373.624 149.698,372.98" id="Fill-58" fill="#C48633" mask="url(#mask-2)"></path>
                <path d="M122.335,343.603 C122.335,343.603 122.136,343.25 121.929,342.559 C121.851,342.214 121.72,341.785 121.686,341.284 C121.606,340.78 121.616,340.21 121.635,339.577 C121.714,338.958 121.763,338.26 121.999,337.569 C122.162,336.851 122.492,336.154 122.83,335.425 C123.024,335.078 123.248,334.74 123.462,334.389 L123.793,333.861 C123.916,333.695 124.058,333.544 124.191,333.384 C124.464,333.068 124.739,332.75 125.016,332.431 C125.303,332.123 125.635,331.867 125.945,331.583 C126.267,331.314 126.578,331.028 126.91,330.78 C127.256,330.555 127.601,330.33 127.943,330.107 C128.286,329.887 128.625,329.663 128.974,329.474 C129.332,329.305 129.686,329.139 130.034,328.975 C130.728,328.649 131.395,328.323 132.07,328.141 C132.732,327.921 133.366,327.742 133.948,327.582 C134.52,327.391 135.083,327.347 135.565,327.261 C136.048,327.179 136.475,327.131 136.822,327.088 C137.521,327.008 137.92,326.984 137.92,326.984 C137.92,326.984 137.57,327.198 136.957,327.533 C136.649,327.697 136.278,327.901 135.848,328.108 C135.425,328.335 134.927,328.534 134.424,328.836 C133.917,329.126 133.37,329.436 132.783,329.733 C132.183,330.011 131.63,330.436 131.014,330.783 C130.711,330.966 130.403,331.151 130.091,331.34 C129.801,331.553 129.507,331.769 129.211,331.985 C128.913,332.197 128.612,332.411 128.311,332.625 C128.02,332.85 127.759,333.106 127.479,333.344 C127.206,333.587 126.904,333.805 126.654,334.066 C126.406,334.328 126.16,334.59 125.915,334.85 C125.655,335.101 125.432,335.371 125.227,335.651 C125.017,335.928 124.793,336.194 124.596,336.47 C124.276,337.06 123.863,337.589 123.63,338.17 C123.336,338.729 123.158,339.295 122.948,339.818 C122.818,340.354 122.644,340.854 122.575,341.311 C122.476,341.768 122.437,342.174 122.389,342.515 C122.374,342.853 122.331,343.129 122.336,343.313 C122.328,343.501 122.335,343.603 122.335,343.603" id="Fill-59" fill="#C48633" mask="url(#mask-2)"></path>
                <path d="M385.494,276.384 L385.467,276.352 C385.149,275.984 382.164,272.451 379.277,266.988 C376.386,261.524 373.608,254.14 373.611,246.077 C373.611,242.071 374.291,237.895 375.979,233.665 C376.219,233.065 375.927,232.386 375.328,232.147 C374.729,231.907 374.049,232.199 373.81,232.798 C372.003,237.321 371.274,241.807 371.274,246.077 C371.278,254.958 374.403,262.897 377.502,268.624 C380.606,274.351 383.699,277.879 383.738,277.925 C384.164,278.41 384.902,278.458 385.387,278.032 C385.872,277.607 385.92,276.869 385.494,276.384" id="Fill-60" fill="#C48633" mask="url(#mask-2)"></path>
                <path d="M382.869,237.786 C382.869,237.786 382.804,237.708 382.667,237.579 C382.541,237.444 382.318,237.275 382.072,237.044 C381.799,236.833 381.488,236.569 381.099,236.311 C380.73,236.031 380.258,235.795 379.79,235.501 C379.275,235.272 378.753,234.991 378.152,234.795 C377.58,234.542 376.915,234.45 376.274,234.251 C375.94,234.19 375.595,234.155 375.251,234.104 C374.909,234.046 374.56,234.008 374.199,234.009 C373.843,233.994 373.483,233.978 373.122,233.963 C372.762,233.95 372.393,234.004 372.028,234.021 C371.662,234.045 371.295,234.043 370.931,234.085 C370.564,234.142 370.2,234.198 369.839,234.254 C369.475,234.305 369.114,234.355 368.758,234.405 C368.403,234.488 368.053,234.569 367.709,234.649 C367.024,234.83 366.332,234.911 365.708,235.13 C365.08,235.326 364.472,235.486 363.905,235.631 C363.335,235.765 362.839,235.97 362.378,236.103 C361.925,236.254 361.517,236.366 361.182,236.463 C360.509,236.651 360.108,236.742 360.108,236.742 C360.108,236.742 360.411,236.479 360.968,236.05 C361.247,235.839 361.586,235.576 361.989,235.297 C362.395,235.023 362.829,234.662 363.373,234.4 C363.902,234.109 364.481,233.795 365.108,233.492 C365.72,233.152 366.426,232.92 367.15,232.669 C367.514,232.544 367.883,232.417 368.258,232.288 C368.64,232.181 369.038,232.104 369.438,232.023 C369.839,231.945 370.242,231.865 370.648,231.786 C371.06,231.732 371.481,231.72 371.899,231.688 C372.319,231.676 372.736,231.627 373.157,231.648 C373.577,231.684 373.997,231.72 374.412,231.756 C374.62,231.778 374.827,231.788 375.031,231.821 L375.636,231.969 C376.035,232.07 376.431,232.157 376.812,232.271 C377.563,232.557 378.285,232.826 378.902,233.228 C379.553,233.558 380.075,234.024 380.563,234.413 C381.019,234.854 381.423,235.256 381.718,235.672 C382.042,236.055 382.248,236.453 382.433,236.755 C382.766,237.395 382.869,237.786 382.869,237.786" id="Fill-61" fill="#C48633" mask="url(#mask-2)"></path>
                <path d="M214.655,271.62 C214.655,271.62 214.771,272.023 214.988,272.709 C215.201,273.396 215.518,274.364 215.94,275.48 C216.151,276.038 216.412,276.625 216.685,277.23 C216.963,277.836 217.32,278.428 217.679,279.02 C218.054,279.603 218.518,280.122 219.003,280.577 C219.492,281.036 220.055,281.357 220.653,281.562 C220.945,281.689 221.27,281.72 221.582,281.791 C221.913,281.786 222.233,281.859 222.575,281.809 C223.243,281.783 223.94,281.642 224.605,281.438 C224.944,281.364 225.26,281.201 225.588,281.098 C225.916,280.994 226.23,280.859 226.533,280.716 C227.147,280.452 227.721,280.157 228.258,279.89 C228.797,279.628 229.269,279.333 229.712,279.108 C230.15,278.877 230.524,278.654 230.839,278.478 C231.468,278.125 231.847,277.937 231.847,277.937 C231.847,277.937 231.6,278.271 231.135,278.836 C230.898,279.113 230.626,279.469 230.257,279.817 C229.892,280.172 229.509,280.61 229.011,281 C228.529,281.409 228.003,281.856 227.373,282.244 C226.771,282.665 226.076,283.056 225.308,283.372 C224.917,283.523 224.531,283.701 224.095,283.802 L223.449,283.977 C223.224,284.014 222.992,284.037 222.762,284.066 C222.307,284.146 221.815,284.105 221.334,284.094 C220.851,284.011 220.357,283.953 219.889,283.769 C218.954,283.438 218.082,282.895 217.438,282.213 C216.775,281.546 216.291,280.784 215.9,280.043 C215.151,278.541 214.804,277.063 214.645,275.806 C214.47,274.547 214.485,273.495 214.529,272.764 C214.576,272.033 214.655,271.62 214.655,271.62" id="Fill-62" fill="#C48633" mask="url(#mask-2)"></path>
                <path d="M269.474,249.356 C269.474,249.356 269.818,249.597 270.362,250.088 C270.902,250.582 271.647,251.325 272.399,252.349 C273.163,253.362 273.944,254.662 274.455,256.262 C274.691,257.064 274.877,257.948 274.866,258.888 C274.882,259.826 274.635,260.824 274.195,261.713 C273.989,262.172 273.676,262.557 273.387,262.954 C273.051,263.298 272.727,263.67 272.345,263.931 L271.79,264.345 L271.204,264.67 C270.821,264.902 270.422,265.044 270.036,265.208 C269.264,265.517 268.494,265.721 267.769,265.84 C267.047,266.001 266.358,266.047 265.727,266.089 C265.099,266.158 264.519,266.11 264.01,266.111 C263.502,266.118 263.059,266.053 262.695,266.02 C261.969,265.939 261.559,265.871 261.559,265.871 C261.559,265.871 261.962,265.742 262.658,265.556 C263.007,265.464 263.43,265.363 263.906,265.223 C264.381,265.074 264.924,264.957 265.493,264.769 C266.064,264.586 266.681,264.397 267.305,264.159 C267.622,264.05 267.941,263.928 268.249,263.773 C268.556,263.618 268.896,263.516 269.191,263.332 C269.809,263.014 270.407,262.629 270.904,262.181 C271.185,261.979 271.362,261.704 271.604,261.477 C271.777,261.208 271.989,260.959 272.108,260.665 C272.395,260.101 272.574,259.478 272.604,258.808 C272.635,258.143 272.604,257.448 272.467,256.769 C272.312,256.094 272.154,255.421 271.932,254.792 C271.704,254.168 271.482,253.566 271.244,253.019 C270.77,251.924 270.32,251.009 269.995,250.369 C269.672,249.727 269.474,249.356 269.474,249.356" id="Fill-63" fill="#C48633" mask="url(#mask-2)"></path>
                <path d="M197.683,404.814 C197.683,404.814 198.562,404.422 200.211,403.685 C201.863,402.954 204.272,401.85 207.367,400.513 C213.554,397.837 222.354,393.917 232.985,389.389 C238.303,387.128 244.063,384.679 250.155,382.089 C256.26,379.529 262.698,376.829 269.357,374.036 C276.031,371.277 282.906,368.375 289.931,365.521 C296.948,362.65 304.077,359.733 311.206,356.817 C318.351,353.938 325.495,351.059 332.527,348.225 C339.572,345.421 346.506,342.662 353.216,339.992 C359.938,337.354 366.437,334.803 372.599,332.385 C374.14,331.782 375.66,331.188 377.158,330.604 C378.624,330.068 379.947,329.389 381.271,328.636 C383.883,327.126 386.229,325.341 388.217,323.371 C392.213,319.436 394.692,314.721 395.619,310.234 C396.577,305.737 396.185,301.621 395.529,298.363 C394.848,295.091 393.971,292.586 393.311,290.91 C392.983,290.07 392.713,289.434 392.522,289.008 C392.337,288.579 392.241,288.358 392.241,288.358 C392.241,288.358 392.352,288.572 392.565,288.987 C392.783,289.4 393.096,290.019 393.479,290.838 C394.235,292.478 395.339,294.914 396.177,298.215 C397.005,301.495 397.632,305.698 396.862,310.469 C396.477,312.842 395.725,315.33 394.522,317.768 C393.33,320.211 391.662,322.571 389.625,324.741 C387.584,326.911 385.171,328.89 382.449,330.596 C381.099,331.433 379.621,332.26 378.076,332.864 C376.595,333.489 375.091,334.124 373.566,334.768 C367.463,337.33 361.026,340.033 354.368,342.829 C347.696,345.594 340.803,348.45 333.798,351.354 C326.781,354.226 319.652,357.144 312.523,360.061 C305.38,362.941 298.236,365.822 291.204,368.657 C284.18,371.51 277.228,374.224 270.52,376.898 C263.799,379.54 257.302,382.095 251.141,384.516 C244.968,386.907 239.132,389.169 233.744,391.256 C222.966,395.423 213.925,398.749 207.624,401.146 C204.474,402.345 201.977,403.232 200.283,403.861 C198.587,404.482 197.683,404.814 197.683,404.814" id="Fill-64" fill="#C48633" mask="url(#mask-2)"></path>
                <path d="M180.942,397.745 L374.681,319.058 C374.681,319.058 395.78,305.381 381.394,284.146 C382.524,311.024 180.942,397.745 180.942,397.745" id="Fill-65" fill="#FFAE4D" mask="url(#mask-2)"></path>
                <path d="M154.494,29.323 C165.755,51.045 140.185,64.059 140.185,64.059 C140.185,64.059 147.411,69.517 156.218,72.234 C165.188,67.74 174.292,63.498 183.667,59.94 C184.688,57.38 185.544,54.4 186.187,50.929 C194.417,6.56 153.542,0.229 135.078,12.915 C122.985,21.223 121.834,36.546 121.834,36.546 C131.699,20.537 149.565,19.815 154.494,29.323" id="Fill-66" fill="#FFD93B" mask="url(#mask-2)"></path>
                <path d="M156.218,72.235 C155.689,72.072 155.165,71.899 154.649,71.717 L154.65,71.717 C155.166,71.898 155.689,72.071 156.218,72.234 C156.616,72.035 157.014,71.836 157.413,71.638 C157.014,71.836 156.616,72.035 156.218,72.235" id="Fill-67" fill="#FFE162" mask="url(#mask-2)"></path>
                <path d="M154.649,71.717 C146.568,68.882 140.185,64.059 140.185,64.059 C140.185,64.059 146.569,68.882 154.65,71.717 L154.649,71.717" id="Fill-68" fill="#FFE781" mask="url(#mask-2)"></path>
                <path d="M183.667,59.94 C183.917,59.313 184.157,58.66 184.387,57.981 C184.389,57.98 184.389,57.98 184.391,57.98 C184.162,58.658 183.923,59.311 183.673,59.938 C183.671,59.938 183.669,59.939 183.667,59.94" id="Fill-69" fill="#FFE162" mask="url(#mask-2)"></path>
                <path d="M184.387,57.981 C185.087,55.913 185.689,53.6 186.171,51.015 C185.689,53.599 185.09,55.912 184.391,57.98 C184.389,57.98 184.389,57.98 184.387,57.981" id="Fill-70" fill="#FFE781" mask="url(#mask-2)"></path>
                <path d="M154.65,71.717 C146.569,68.882 140.185,64.059 140.185,64.059 C140.185,64.059 157.35,55.323 157.359,40.218 C157.361,36.887 156.529,33.247 154.494,29.323 C152.419,25.32 148.053,23.131 142.955,23.131 C135.943,23.131 127.546,27.276 121.834,36.546 C121.834,36.546 122.985,21.223 135.078,12.915 C140.455,9.221 147.728,7.14 155.14,7.14 C170.907,7.14 187.287,16.567 187.268,39.94 C187.265,43.308 186.922,46.967 186.187,50.929 C186.182,50.957 186.177,50.986 186.171,51.015 C185.689,53.6 185.087,55.913 184.387,57.981 C184.157,58.66 183.917,59.313 183.667,59.94 C174.706,63.34 165.996,67.365 157.413,71.638 C157.014,71.836 156.616,72.035 156.218,72.234 C155.689,72.071 155.166,71.898 154.65,71.717 Z" id="Fill-71" fill="#FFE162" mask="url(#mask-2)"></path>
                <path d="M223.47,455.385 C221.133,455.385 218.801,455.352 216.466,455.285 C187.578,454.462 158.8,448.542 131.61,437.532 C126.625,435.513 121.707,433.329 116.837,430.968 C116.655,428.165 116.483,425.372 116.314,422.593 C148.524,437.327 183.266,444.689 218.02,444.689 C280.563,444.689 343.107,420.829 390.826,373.109 C411.307,352.629 427.394,329.413 439.082,304.642 C441.115,307.74 443.145,310.868 445.156,314.015 C434.252,337.485 419.418,359.581 400.658,379.312 C399.219,380.826 397.762,382.32 396.276,383.806 C394.878,385.204 393.469,386.58 392.046,387.937 C371.678,407.36 348.779,422.589 324.444,433.621 C321.993,434.733 319.516,435.806 317.037,436.833 C289.241,448.337 259.755,454.489 230.149,455.294 C227.921,455.355 225.699,455.385 223.47,455.385 M99.612,421.742 L99.608,421.74 C99.608,421.732 99.607,421.721 99.606,421.714 C99.442,419.093 99.284,416.488 99.128,413.891 C99.134,413.895 99.124,413.889 99.131,413.893 C99.288,416.502 99.446,419.108 99.612,421.742" id="Fill-77" fill="#F2CE38" mask="url(#mask-2)"></path>
                <path d="M116.837,430.968 C111.005,428.14 105.25,425.06 99.612,421.742 C99.446,419.108 99.288,416.502 99.131,413.893 C104.76,417.029 110.505,419.936 116.314,422.593 C116.483,425.372 116.655,428.165 116.837,430.968" id="Fill-78" fill="#F2D65D" mask="url(#mask-2)"></path>
                <path d="M445.156,314.015 C443.145,310.868 441.115,307.74 439.082,304.642 C442.705,296.964 445.905,289.138 448.683,281.195 C450.688,284.147 452.715,287.143 454.739,290.156 C452.908,295.516 450.882,300.837 448.669,306.085 C447.547,308.745 446.376,311.388 445.156,314.015" id="Fill-81" fill="#C2A52D" mask="url(#mask-2)"></path>
            </g>
        </g>
    </g>
</svg>