<!-- Call icons using this:  ===============================

<svg class="WHATEVER"><use xlink:href="../ui/svg/sprites.svg#ID_FROM_SYMBOL"></use></svg>

=========================================== -->

<svg xmlns="http://www.w3.org/2000/svg" xmlns:xlink="http://www.w3.org/1999/xlink">
    <defs>

        <symbol id="icon_home" viewBox="0 0 576 512"> <!-- icon_home.svg -->
            <path d="M541 229.16l-61-49.83v-77.4a6 6 0 0 0-6-6h-20a6 6 0 0 0-6 6v51.33L308.19 39.14a32.16 32.16 0 0 0-40.38 0L35 229.16a8 8 0 0 0-1.16 11.24l10.1 12.41a8 8 0 0 0 11.2 1.19L96 220.62v243a16 16 0 0 0 16 16h128a16 16 0 0 0 16-16v-128l64 .3V464a16 16 0 0 0 16 16l128-.33a16 16 0 0 0 16-16V220.62L520.86 254a8 8 0 0 0 11.25-1.16l10.1-12.41a8 8 0 0 0-1.21-11.27zm-93.11 218.59h.1l-96 .3V319.88a16.05 16.05 0 0 0-15.95-16l-96-.27a16 16 0 0 0-16.05 16v128.14H128V194.51L288 63.94l160 130.57z"/>
        </symbol>

        <symbol id="icon_schedule" viewBox="0 0 448 512"> <!-- icon_schedule.svg -->
            <path d="M400 64h-48V12c0-6.6-5.4-12-12-12h-8c-6.6 0-12 5.4-12 12v52H128V12c0-6.6-5.4-12-12-12h-8c-6.6 0-12 5.4-12 12v52H48C21.5 64 0 85.5 0 112v352c0 26.5 21.5 48 48 48h352c26.5 0 48-21.5 48-48V112c0-26.5-21.5-48-48-48zM48 96h352c8.8 0 16 7.2 16 16v48H32v-48c0-8.8 7.2-16 16-16zm352 384H48c-8.8 0-16-7.2-16-16V192h384v272c0 8.8-7.2 16-16 16zM148 320h-40c-6.6 0-12-5.4-12-12v-40c0-6.6 5.4-12 12-12h40c6.6 0 12 5.4 12 12v40c0 6.6-5.4 12-12 12zm96 0h-40c-6.6 0-12-5.4-12-12v-40c0-6.6 5.4-12 12-12h40c6.6 0 12 5.4 12 12v40c0 6.6-5.4 12-12 12zm96 0h-40c-6.6 0-12-5.4-12-12v-40c0-6.6 5.4-12 12-12h40c6.6 0 12 5.4 12 12v40c0 6.6-5.4 12-12 12zm-96 96h-40c-6.6 0-12-5.4-12-12v-40c0-6.6 5.4-12 12-12h40c6.6 0 12 5.4 12 12v40c0 6.6-5.4 12-12 12zm-96 0h-40c-6.6 0-12-5.4-12-12v-40c0-6.6 5.4-12 12-12h40c6.6 0 12 5.4 12 12v40c0 6.6-5.4 12-12 12zm192 0h-40c-6.6 0-12-5.4-12-12v-40c0-6.6 5.4-12 12-12h40c6.6 0 12 5.4 12 12v40c0 6.6-5.4 12-12 12z"/>
        </symbol>

        <symbol id="icon_programs" viewBox="0 0 512 512"> <!-- icon_programs.svg -->
            <path d="M506 114H198c-3.3 0-6-2.7-6-6V84c0-3.3 2.7-6 6-6h308c3.3 0 6 2.7 6 6v24c0 3.3-2.7 6-6 6zm6 154v-24c0-3.3-2.7-6-6-6H198c-3.3 0-6 2.7-6 6v24c0 3.3 2.7 6 6 6h308c3.3 0 6-2.7 6-6zm0 160v-24c0-3.3-2.7-6-6-6H198c-3.3 0-6 2.7-6 6v24c0 3.3 2.7 6 6 6h308c3.3 0 6-2.7 6-6zM68.4 376c-19.9 0-36 16.1-36 36s16.1 36 36 36 35.6-16.1 35.6-36-15.7-36-35.6-36zM170.9 42.9l-7.4-7.4c-4.7-4.7-12.3-4.7-17 0l-78.8 79.2-38.4-38.4c-4.7-4.7-12.3-4.7-17 0l-8.9 8.9c-4.7 4.7-4.7 12.3 0 17l54.3 54.3c4.7 4.7 12.3 4.7 17 0l.2-.2L170.8 60c4.8-4.8 4.8-12.4.1-17.1zm.4 160l-7.4-7.4c-4.7-4.7-12.3-4.7-17 0l-78.8 79.2-38.4-38.4c-4.7-4.7-12.3-4.7-17 0L4 245.2c-4.7 4.7-4.7 12.3 0 17l54.3 54.3c4.7 4.7 12.3 4.7 17 0l-.2-.2 96.3-96.3c4.6-4.8 4.6-12.4-.1-17.1z"/>
        </symbol>

        <symbol id="icon_plans" viewBox="0 0 384 512"> <!-- icon_plans.svg -->
            <path fill="currentColor" d="M280 240H168c-4.4 0-8 3.6-8 8v16c0 4.4 3.6 8 8 8h112c4.4 0 8-3.6 8-8v-16c0-4.4-3.6-8-8-8zm0 96H168c-4.4 0-8 3.6-8 8v16c0 4.4 3.6 8 8 8h112c4.4 0 8-3.6 8-8v-16c0-4.4-3.6-8-8-8zM112 232c-13.3 0-24 10.7-24 24s10.7 24 24 24 24-10.7 24-24-10.7-24-24-24zm0 96c-13.3 0-24 10.7-24 24s10.7 24 24 24 24-10.7 24-24-10.7-24-24-24zM336 64h-88.6c.4-2.6.6-5.3.6-8 0-30.9-25.1-56-56-56s-56 25.1-56 56c0 2.7.2 5.4.6 8H48C21.5 64 0 85.5 0 112v352c0 26.5 21.5 48 48 48h288c26.5 0 48-21.5 48-48V112c0-26.5-21.5-48-48-48zM192 32c13.3 0 24 10.7 24 24s-10.7 24-24 24-24-10.7-24-24 10.7-24 24-24zm160 432c0 8.8-7.2 16-16 16H48c-8.8 0-16-7.2-16-16V112c0-8.8 7.2-16 16-16h48v20c0 6.6 5.4 12 12 12h168c6.6 0 12-5.4 12-12V96h48c8.8 0 16 7.2 16 16v352z"/>
        </symbol>

        <symbol id="icon_resources" viewBox="0 0 448 512"> <!-- icon_resources.svg -->
            <path fill="currentColor" d="M356 160H188c-6.6 0-12-5.4-12-12v-8c0-6.6 5.4-12 12-12h168c6.6 0 12 5.4 12 12v8c0 6.6-5.4 12-12 12zm12 52v-8c0-6.6-5.4-12-12-12H188c-6.6 0-12 5.4-12 12v8c0 6.6 5.4 12 12 12h168c6.6 0 12-5.4 12-12zm64.7 268h3.3c6.6 0 12 5.4 12 12v8c0 6.6-5.4 12-12 12H80c-44.2 0-80-35.8-80-80V80C0 35.8 35.8 0 80 0h344c13.3 0 24 10.7 24 24v368c0 10-6.2 18.6-14.9 22.2-3.6 16.1-4.4 45.6-.4 65.8zM128 384h288V32H128v352zm-96 16c13.4-10 30-16 48-16h16V32H80c-26.5 0-48 21.5-48 48v320zm372.3 80c-3.1-20.4-2.9-45.2 0-64H80c-64 0-64 64 0 64h324.3z"/>
        </symbol>

    </defs>
</svg>